 <svg
                        width="50"
                        height="54"
                        viewBox="0 0 50 54"
                        fill="none"
                        xmlns="http://www.w3.org/2000/svg"
                      >
                        <g filter="url(#filter0_d_140_7660)">
                          <path
                            d="M35 13.9997H29.0167L32.85 10.183C33.0054 10.0276 33.1287 9.84311 33.2128 9.64007C33.2969 9.43704 33.3402 9.21942 33.3402 8.99966C33.3402 8.77989 33.2969 8.56228 33.2128 8.35924C33.1287 8.15621 33.0054 7.97172 32.85 7.81632C32.6946 7.66093 32.5101 7.53766 32.3071 7.45356C32.104 7.36946 31.8864 7.32617 31.6667 7.32617C31.2228 7.32617 30.7972 7.50249 30.4833 7.81632L25 13.3163L19.5167 7.81632C19.3613 7.66093 19.1768 7.53766 18.9737 7.45356C18.7707 7.36946 18.5531 7.32617 18.3333 7.32617C18.1136 7.32617 17.896 7.36946 17.6929 7.45356C17.4899 7.53766 17.3054 7.66093 17.15 7.81632C16.8362 8.13016 16.6598 8.55582 16.6598 8.99966C16.6598 9.21942 16.7031 9.43704 16.7872 9.64007C16.8713 9.84311 16.9946 10.0276 17.15 10.183L20.9833 13.9997H15C13.6739 13.9997 12.4021 14.5264 11.4645 15.4641C10.5268 16.4018 10 17.6736 10 18.9997V35.6663C10 36.9924 10.5268 38.2642 11.4645 39.2019C12.4021 40.1395 13.6739 40.6663 15 40.6663H35C36.3261 40.6663 37.5979 40.1395 38.5355 39.2019C39.4732 38.2642 40 36.9924 40 35.6663V18.9997C40 17.6736 39.4732 16.4018 38.5355 15.4641C37.5979 14.5264 36.3261 13.9997 35 13.9997ZM36.6667 35.6663C36.6667 36.1084 36.4911 36.5323 36.1785 36.8448C35.866 37.1574 35.442 37.333 35 37.333H15C14.558 37.333 14.134 37.1574 13.8215 36.8448C13.5089 36.5323 13.3333 36.1084 13.3333 35.6663V23.9997C13.3333 23.5576 13.5089 23.1337 13.8215 22.8211C14.134 22.5086 14.558 22.333 15 22.333H35C35.442 22.333 35.866 22.5086 36.1785 22.8211C36.4911 23.1337 36.6667 23.5576 36.6667 23.9997V35.6663Z"
                            fill="white"
                          />
                          <path
                            d="M35 13.9997H29.0167L32.85 10.183C33.0054 10.0276 33.1287 9.84311 33.2128 9.64007C33.2969 9.43704 33.3402 9.21942 33.3402 8.99966C33.3402 8.77989 33.2969 8.56228 33.2128 8.35924C33.1287 8.15621 33.0054 7.97172 32.85 7.81632C32.6946 7.66093 32.5101 7.53766 32.3071 7.45356C32.104 7.36946 31.8864 7.32617 31.6667 7.32617C31.2228 7.32617 30.7972 7.50249 30.4833 7.81632L25 13.3163L19.5167 7.81632C19.3613 7.66093 19.1768 7.53766 18.9737 7.45356C18.7707 7.36946 18.5531 7.32617 18.3333 7.32617C18.1136 7.32617 17.896 7.36946 17.6929 7.45356C17.4899 7.53766 17.3054 7.66093 17.15 7.81632C16.8362 8.13016 16.6598 8.55582 16.6598 8.99966C16.6598 9.21942 16.7031 9.43704 16.7872 9.64007C16.8713 9.84311 16.9946 10.0276 17.15 10.183L20.9833 13.9997H15C13.6739 13.9997 12.4021 14.5264 11.4645 15.4641C10.5268 16.4018 10 17.6736 10 18.9997V35.6663C10 36.9924 10.5268 38.2642 11.4645 39.2019C12.4021 40.1395 13.6739 40.6663 15 40.6663H35C36.3261 40.6663 37.5979 40.1395 38.5355 39.2019C39.4732 38.2642 40 36.9924 40 35.6663V18.9997C40 17.6736 39.4732 16.4018 38.5355 15.4641C37.5979 14.5264 36.3261 13.9997 35 13.9997ZM36.6667 35.6663C36.6667 36.1084 36.4911 36.5323 36.1785 36.8448C35.866 37.1574 35.442 37.333 35 37.333H15C14.558 37.333 14.134 37.1574 13.8215 36.8448C13.5089 36.5323 13.3333 36.1084 13.3333 35.6663V23.9997C13.3333 23.5576 13.5089 23.1337 13.8215 22.8211C14.134 22.5086 14.558 22.333 15 22.333H35C35.442 22.333 35.866 22.5086 36.1785 22.8211C36.4911 23.1337 36.6667 23.5576 36.6667 23.9997V35.6663Z"
                            fill="url(#paint0_radial_140_7660)"
                          />
                        </g>
                        <defs>
                          <filter
                            id="filter0_d_140_7660"
                            x="0"
                            y="0.326172"
                            width="50"
                            height="53.3403"
                            filterUnits="userSpaceOnUse"
                            color-interpolation-filters="sRGB"
                          >
                            <feFlood
                              flood-opacity="0"
                              result="BackgroundImageFix"
                            />
                            <feColorMatrix
                              in="SourceAlpha"
                              type="matrix"
                              values="0 0 0 0 0 0 0 0 0 0 0 0 0 0 0 0 0 0 127 0"
                              result="hardAlpha"
                            />
                            <feOffset dy="3" />
                            <feGaussianBlur stdDeviation="5" />
                            <feComposite in2="hardAlpha" operator="out" />
                            <feColorMatrix
                              type="matrix"
                              values="0 0 0 0 0.976471 0 0 0 0 0.384314 0 0 0 0 0.196078 0 0 0 0.42 0"
                            />
                            <feBlend
                              mode="normal"
                              in2="BackgroundImageFix"
                              result="effect1_dropShadow_140_7660"
                            />
                            <feBlend
                              mode="normal"
                              in="SourceGraphic"
                              in2="effect1_dropShadow_140_7660"
                              result="shape"
                            />
                          </filter>
                          <radialGradient
                            id="paint0_radial_140_7660"
                            cx="0"
                            cy="0"
                            r="1"
                            gradientUnits="userSpaceOnUse"
                            gradientTransform="translate(20.9688 65.6714) rotate(-87.0234) scale(103.256 40.3116)"
                          >
                            <stop stop-color="#FF9933" />
                            <stop offset="0.516164" stop-color="#FB7932" />
                            <stop offset="1" stop-color="#F33830" />
                          </radialGradient>
                        </defs>
                      </svg>