  <svg
                        width="55"
                        height="48"
                        viewBox="0 0 55 48"
                        fill="none"
                        xmlns="http://www.w3.org/2000/svg"
                      >
                        <g filter="url(#filter0_d_140_8390)">
                          <path
                            d="M41.5625 7H13.4375C12.5261 7.00103 11.6524 7.36353 11.008 8.00796C10.3635 8.65239 10.001 9.52614 10 10.4375V31.0625C10.001 31.9739 10.3635 32.8476 11.008 33.492C11.6524 34.1365 12.5261 34.499 13.4375 34.5H41.5625C42.4739 34.499 43.3476 34.1365 43.992 33.492C44.6365 32.8476 44.999 31.9739 45 31.0625V10.4375C44.999 9.52614 44.6365 8.65239 43.992 8.00796C43.3476 7.36353 42.4739 7.00103 41.5625 7ZM16.25 31.0625C16.25 31.3111 16.1512 31.5496 15.9754 31.7254C15.7996 31.9012 15.5611 32 15.3125 32H13.4375C13.1889 32 12.9504 31.9012 12.7746 31.7254C12.5988 31.5496 12.5 31.3111 12.5 31.0625V29.1875C12.5 28.9389 12.5988 28.7004 12.7746 28.5246C12.9504 28.3488 13.1889 28.25 13.4375 28.25H15.3125C15.5611 28.25 15.7996 28.3488 15.9754 28.5246C16.1512 28.7004 16.25 28.9389 16.25 29.1875V31.0625ZM16.25 24.8125C16.25 25.0611 16.1512 25.2996 15.9754 25.4754C15.7996 25.6512 15.5611 25.75 15.3125 25.75H13.4375C13.1889 25.75 12.9504 25.6512 12.7746 25.4754C12.5988 25.2996 12.5 25.0611 12.5 24.8125V22.9375C12.5 22.6889 12.5988 22.4504 12.7746 22.2746C12.9504 22.0988 13.1889 22 13.4375 22H15.3125C15.5611 22 15.7996 22.0988 15.9754 22.2746C16.1512 22.4504 16.25 22.6889 16.25 22.9375V24.8125ZM16.25 18.5625C16.25 18.8111 16.1512 19.0496 15.9754 19.2254C15.7996 19.4012 15.5611 19.5 15.3125 19.5H13.4375C13.1889 19.5 12.9504 19.4012 12.7746 19.2254C12.5988 19.0496 12.5 18.8111 12.5 18.5625V16.6875C12.5 16.4389 12.5988 16.2004 12.7746 16.0246C12.9504 15.8488 13.1889 15.75 13.4375 15.75H15.3125C15.5611 15.75 15.7996 15.8488 15.9754 16.0246C16.1512 16.2004 16.25 16.4389 16.25 16.6875V18.5625ZM16.25 12.3125C16.25 12.5611 16.1512 12.7996 15.9754 12.9754C15.7996 13.1512 15.5611 13.25 15.3125 13.25H13.4375C13.1889 13.25 12.9504 13.1512 12.7746 12.9754C12.5988 12.7996 12.5 12.5611 12.5 12.3125V10.4375C12.5 10.1889 12.5988 9.9504 12.7746 9.77459C12.9504 9.59877 13.1889 9.5 13.4375 9.5H15.3125C15.5611 9.5 15.7996 9.59877 15.9754 9.77459C16.1512 9.9504 16.25 10.1889 16.25 10.4375V12.3125ZM35.1312 22H19.8688C19.5372 22 19.2193 21.8683 18.9849 21.6339C18.7504 21.3995 18.6188 21.0815 18.6188 20.75C18.6188 20.4185 18.7504 20.1005 18.9849 19.8661C19.2193 19.6317 19.5372 19.5 19.8688 19.5H35.1312C35.4628 19.5 35.7807 19.6317 36.0151 19.8661C36.2496 20.1005 36.3812 20.4185 36.3812 20.75C36.3812 21.0815 36.2496 21.3995 36.0151 21.6339C35.7807 21.8683 35.4628 22 35.1312 22ZM42.5 31.0625C42.5 31.3111 42.4012 31.5496 42.2254 31.7254C42.0496 31.9012 41.8111 32 41.5625 32H39.6875C39.4389 32 39.2004 31.9012 39.0246 31.7254C38.8488 31.5496 38.75 31.3111 38.75 31.0625V29.1875C38.75 28.9389 38.8488 28.7004 39.0246 28.5246C39.2004 28.3488 39.4389 28.25 39.6875 28.25H41.5625C41.8111 28.25 42.0496 28.3488 42.2254 28.5246C42.4012 28.7004 42.5 28.9389 42.5 29.1875V31.0625ZM42.5 24.8125C42.5 25.0611 42.4012 25.2996 42.2254 25.4754C42.0496 25.6512 41.8111 25.75 41.5625 25.75H39.6875C39.4389 25.75 39.2004 25.6512 39.0246 25.4754C38.8488 25.2996 38.75 25.0611 38.75 24.8125V22.9375C38.75 22.6889 38.8488 22.4504 39.0246 22.2746C39.2004 22.0988 39.4389 22 39.6875 22H41.5625C41.8111 22 42.0496 22.0988 42.2254 22.2746C42.4012 22.4504 42.5 22.6889 42.5 22.9375V24.8125ZM42.5 18.5625C42.5 18.8111 42.4012 19.0496 42.2254 19.2254C42.0496 19.4012 41.8111 19.5 41.5625 19.5H39.6875C39.4389 19.5 39.2004 19.4012 39.0246 19.2254C38.8488 19.0496 38.75 18.8111 38.75 18.5625V16.6875C38.75 16.4389 38.8488 16.2004 39.0246 16.0246C39.2004 15.8488 39.4389 15.75 39.6875 15.75H41.5625C41.8111 15.75 42.0496 15.8488 42.2254 16.0246C42.4012 16.2004 42.5 16.4389 42.5 16.6875V18.5625ZM42.5 12.3125C42.5 12.5611 42.4012 12.7996 42.2254 12.9754C42.0496 13.1512 41.8111 13.25 41.5625 13.25H39.6875C39.4389 13.25 39.2004 13.1512 39.0246 12.9754C38.8488 12.7996 38.75 12.5611 38.75 12.3125V10.4375C38.75 10.1889 38.8488 9.9504 39.0246 9.77459C39.2004 9.59877 39.4389 9.5 39.6875 9.5H41.5625C41.8111 9.5 42.0496 9.59877 42.2254 9.77459C42.4012 9.9504 42.5 10.1889 42.5 10.4375V12.3125Z"
                            fill="#545454"
                          />
                          <path
                            d="M41.5625 7H13.4375C12.5261 7.00103 11.6524 7.36353 11.008 8.00796C10.3635 8.65239 10.001 9.52614 10 10.4375V31.0625C10.001 31.9739 10.3635 32.8476 11.008 33.492C11.6524 34.1365 12.5261 34.499 13.4375 34.5H41.5625C42.4739 34.499 43.3476 34.1365 43.992 33.492C44.6365 32.8476 44.999 31.9739 45 31.0625V10.4375C44.999 9.52614 44.6365 8.65239 43.992 8.00796C43.3476 7.36353 42.4739 7.00103 41.5625 7ZM16.25 31.0625C16.25 31.3111 16.1512 31.5496 15.9754 31.7254C15.7996 31.9012 15.5611 32 15.3125 32H13.4375C13.1889 32 12.9504 31.9012 12.7746 31.7254C12.5988 31.5496 12.5 31.3111 12.5 31.0625V29.1875C12.5 28.9389 12.5988 28.7004 12.7746 28.5246C12.9504 28.3488 13.1889 28.25 13.4375 28.25H15.3125C15.5611 28.25 15.7996 28.3488 15.9754 28.5246C16.1512 28.7004 16.25 28.9389 16.25 29.1875V31.0625ZM16.25 24.8125C16.25 25.0611 16.1512 25.2996 15.9754 25.4754C15.7996 25.6512 15.5611 25.75 15.3125 25.75H13.4375C13.1889 25.75 12.9504 25.6512 12.7746 25.4754C12.5988 25.2996 12.5 25.0611 12.5 24.8125V22.9375C12.5 22.6889 12.5988 22.4504 12.7746 22.2746C12.9504 22.0988 13.1889 22 13.4375 22H15.3125C15.5611 22 15.7996 22.0988 15.9754 22.2746C16.1512 22.4504 16.25 22.6889 16.25 22.9375V24.8125ZM16.25 18.5625C16.25 18.8111 16.1512 19.0496 15.9754 19.2254C15.7996 19.4012 15.5611 19.5 15.3125 19.5H13.4375C13.1889 19.5 12.9504 19.4012 12.7746 19.2254C12.5988 19.0496 12.5 18.8111 12.5 18.5625V16.6875C12.5 16.4389 12.5988 16.2004 12.7746 16.0246C12.9504 15.8488 13.1889 15.75 13.4375 15.75H15.3125C15.5611 15.75 15.7996 15.8488 15.9754 16.0246C16.1512 16.2004 16.25 16.4389 16.25 16.6875V18.5625ZM16.25 12.3125C16.25 12.5611 16.1512 12.7996 15.9754 12.9754C15.7996 13.1512 15.5611 13.25 15.3125 13.25H13.4375C13.1889 13.25 12.9504 13.1512 12.7746 12.9754C12.5988 12.7996 12.5 12.5611 12.5 12.3125V10.4375C12.5 10.1889 12.5988 9.9504 12.7746 9.77459C12.9504 9.59877 13.1889 9.5 13.4375 9.5H15.3125C15.5611 9.5 15.7996 9.59877 15.9754 9.77459C16.1512 9.9504 16.25 10.1889 16.25 10.4375V12.3125ZM35.1312 22H19.8688C19.5372 22 19.2193 21.8683 18.9849 21.6339C18.7504 21.3995 18.6188 21.0815 18.6188 20.75C18.6188 20.4185 18.7504 20.1005 18.9849 19.8661C19.2193 19.6317 19.5372 19.5 19.8688 19.5H35.1312C35.4628 19.5 35.7807 19.6317 36.0151 19.8661C36.2496 20.1005 36.3812 20.4185 36.3812 20.75C36.3812 21.0815 36.2496 21.3995 36.0151 21.6339C35.7807 21.8683 35.4628 22 35.1312 22ZM42.5 31.0625C42.5 31.3111 42.4012 31.5496 42.2254 31.7254C42.0496 31.9012 41.8111 32 41.5625 32H39.6875C39.4389 32 39.2004 31.9012 39.0246 31.7254C38.8488 31.5496 38.75 31.3111 38.75 31.0625V29.1875C38.75 28.9389 38.8488 28.7004 39.0246 28.5246C39.2004 28.3488 39.4389 28.25 39.6875 28.25H41.5625C41.8111 28.25 42.0496 28.3488 42.2254 28.5246C42.4012 28.7004 42.5 28.9389 42.5 29.1875V31.0625ZM42.5 24.8125C42.5 25.0611 42.4012 25.2996 42.2254 25.4754C42.0496 25.6512 41.8111 25.75 41.5625 25.75H39.6875C39.4389 25.75 39.2004 25.6512 39.0246 25.4754C38.8488 25.2996 38.75 25.0611 38.75 24.8125V22.9375C38.75 22.6889 38.8488 22.4504 39.0246 22.2746C39.2004 22.0988 39.4389 22 39.6875 22H41.5625C41.8111 22 42.0496 22.0988 42.2254 22.2746C42.4012 22.4504 42.5 22.6889 42.5 22.9375V24.8125ZM42.5 18.5625C42.5 18.8111 42.4012 19.0496 42.2254 19.2254C42.0496 19.4012 41.8111 19.5 41.5625 19.5H39.6875C39.4389 19.5 39.2004 19.4012 39.0246 19.2254C38.8488 19.0496 38.75 18.8111 38.75 18.5625V16.6875C38.75 16.4389 38.8488 16.2004 39.0246 16.0246C39.2004 15.8488 39.4389 15.75 39.6875 15.75H41.5625C41.8111 15.75 42.0496 15.8488 42.2254 16.0246C42.4012 16.2004 42.5 16.4389 42.5 16.6875V18.5625ZM42.5 12.3125C42.5 12.5611 42.4012 12.7996 42.2254 12.9754C42.0496 13.1512 41.8111 13.25 41.5625 13.25H39.6875C39.4389 13.25 39.2004 13.1512 39.0246 12.9754C38.8488 12.7996 38.75 12.5611 38.75 12.3125V10.4375C38.75 10.1889 38.8488 9.9504 39.0246 9.77459C39.2004 9.59877 39.4389 9.5 39.6875 9.5H41.5625C41.8111 9.5 42.0496 9.59877 42.2254 9.77459C42.4012 9.9504 42.5 10.1889 42.5 10.4375V12.3125Z"
                            fill="url(#paint0_radial_140_8390)"
                          />
                        </g>
                        <defs>
                          <filter
                            id="filter0_d_140_8390"
                            x="0"
                            y="0"
                            width="55"
                            height="47.5"
                            filterUnits="userSpaceOnUse"
                            color-interpolation-filters="sRGB"
                          >
                            <feFlood
                              flood-opacity="0"
                              result="BackgroundImageFix"
                            />
                            <feColorMatrix
                              in="SourceAlpha"
                              type="matrix"
                              values="0 0 0 0 0 0 0 0 0 0 0 0 0 0 0 0 0 0 127 0"
                              result="hardAlpha"
                            />
                            <feOffset dy="3" />
                            <feGaussianBlur stdDeviation="5" />
                            <feComposite in2="hardAlpha" operator="out" />
                            <feColorMatrix
                              type="matrix"
                              values="0 0 0 0 0.976471 0 0 0 0 0.384314 0 0 0 0 0.196078 0 0 0 0.42 0"
                            />
                            <feBlend
                              mode="normal"
                              in2="BackgroundImageFix"
                              result="effect1_dropShadow_140_8390"
                            />
                            <feBlend
                              mode="normal"
                              in="SourceGraphic"
                              in2="effect1_dropShadow_140_8390"
                              result="shape"
                            />
                          </filter>
                          <radialGradient
                            id="paint0_radial_140_8390"
                            cx="0"
                            cy="0"
                            r="1"
                            gradientUnits="userSpaceOnUse"
                            gradientTransform="translate(22.7969 55.125) rotate(-85.7936) scale(85.2833 46.9669)"
                          >
                            <stop stop-color="#FF9933" />
                            <stop offset="0.516164" stop-color="#FB7932" />
                            <stop offset="1" stop-color="#F33830" />
                          </radialGradient>
                        </defs>
                      </svg>