  <svg
                        width="54"
                        height="54"
                        viewBox="0 0 54 54"
                        fill="none"
                        xmlns="http://www.w3.org/2000/svg"
                      >
                        <g filter="url(#filter0_d_140_8386)">
                          <path
                            d="M41.2258 9.77301C38.7841 7.33301 34.8558 7.33301 26.9991 7.33301C19.1424 7.33301 15.2174 7.33301 12.7741 9.77301C11.5108 11.0363 10.9024 12.6963 10.6074 15.093C11.4969 14.1025 12.5614 13.2843 13.7474 12.6797C15.0508 12.0163 16.4458 11.7463 17.9891 11.6213C19.4808 11.4997 21.3174 11.4997 23.5608 11.4997H30.4374C32.6824 11.4997 34.5174 11.4997 36.0091 11.6213C37.5541 11.748 38.9491 12.0163 40.2508 12.6797C41.4368 13.2843 42.5013 14.1024 43.3908 15.093C43.0974 12.6963 42.4891 11.0363 41.2258 9.77301Z"
                            fill="url(#paint0_radial_140_8386)"
                          />
                          <path
                            fill-rule="evenodd"
                            clip-rule="evenodd"
                            d="M10.334 27.3333C10.334 22.6667 10.334 20.3333 11.2423 18.55C12.0413 16.9821 13.316 15.7073 14.884 14.9083C16.6673 14 19.0007 14 23.6673 14H30.334C35.0007 14 37.334 14 39.1173 14.9083C40.6853 15.7073 41.9601 16.9821 42.759 18.55C43.6673 20.3333 43.6673 22.6667 43.6673 27.3333C43.6673 32 43.6673 34.3333 42.759 36.1167C41.9601 37.6846 40.6853 38.9594 39.1173 39.7583C37.334 40.6667 35.0007 40.6667 30.334 40.6667H23.6673C19.0007 40.6667 16.6673 40.6667 14.884 39.7583C13.316 38.9594 12.0413 37.6846 11.2423 36.1167C10.334 34.3333 10.334 32 10.334 27.3333ZM27.884 21.45C27.6496 21.2159 27.3319 21.0844 27.0007 21.0844C26.6694 21.0844 26.3517 21.2159 26.1173 21.45L21.9507 25.6167C21.8278 25.7311 21.7293 25.8691 21.661 26.0224C21.5927 26.1758 21.556 26.3413 21.553 26.5091C21.55 26.677 21.5809 26.8437 21.6438 26.9993C21.7066 27.155 21.8002 27.2964 21.9189 27.4151C22.0376 27.5338 22.179 27.6273 22.3347 27.6902C22.4903 27.7531 22.657 27.7839 22.8249 27.781C22.9927 27.778 23.1582 27.7413 23.3115 27.673C23.4649 27.6046 23.6029 27.5061 23.7173 27.3833L25.7507 25.35V32.3333C25.7507 32.6649 25.8823 32.9828 26.1168 33.2172C26.3512 33.4516 26.6691 33.5833 27.0007 33.5833C27.3322 33.5833 27.6501 33.4516 27.8845 33.2172C28.119 32.9828 28.2507 32.6649 28.2507 32.3333V25.35L30.284 27.3833C30.3984 27.5061 30.5364 27.6046 30.6898 27.673C30.8431 27.7413 31.0086 27.778 31.1764 27.781C31.3443 27.7839 31.511 27.7531 31.6666 27.6902C31.8223 27.6273 31.9637 27.5338 32.0824 27.4151C32.2011 27.2964 32.2947 27.155 32.3575 26.9993C32.4204 26.8437 32.4513 26.677 32.4483 26.5091C32.4453 26.3413 32.4086 26.1758 32.3403 26.0224C32.272 25.8691 32.1735 25.7311 32.0506 25.6167L27.884 21.45Z"
                            fill="url(#paint1_radial_140_8386)"
                          />
                        </g>
                        <defs>
                          <filter
                            id="filter0_d_140_8386"
                            x="0.333984"
                            y="0.333008"
                            width="53.3334"
                            height="53.3335"
                            filterUnits="userSpaceOnUse"
                            color-interpolation-filters="sRGB"
                          >
                            <feFlood
                              flood-opacity="0"
                              result="BackgroundImageFix"
                            />
                            <feColorMatrix
                              in="SourceAlpha"
                              type="matrix"
                              values="0 0 0 0 0 0 0 0 0 0 0 0 0 0 0 0 0 0 127 0"
                              result="hardAlpha"
                            />
                            <feOffset dy="3" />
                            <feGaussianBlur stdDeviation="5" />
                            <feComposite in2="hardAlpha" operator="out" />
                            <feColorMatrix
                              type="matrix"
                              values="0 0 0 0 0.976471 0 0 0 0 0.384314 0 0 0 0 0.196078 0 0 0 0.42 0"
                            />
                            <feBlend
                              mode="normal"
                              in2="BackgroundImageFix"
                              result="effect1_dropShadow_140_8386"
                            />
                            <feBlend
                              mode="normal"
                              in="SourceGraphic"
                              in2="effect1_dropShadow_140_8386"
                              result="shape"
                            />
                          </filter>
                          <radialGradient
                            id="paint0_radial_140_8386"
                            cx="0"
                            cy="0"
                            r="1"
                            gradientUnits="userSpaceOnUse"
                            gradientTransform="translate(22.5938 20.913) rotate(-76.2805) scale(24.7055 42.8526)"
                          >
                            <stop stop-color="#FF9933" />
                            <stop offset="0.516164" stop-color="#FB7932" />
                            <stop offset="1" stop-color="#F33830" />
                          </radialGradient>
                          <radialGradient
                            id="paint1_radial_140_8386"
                            cx="0"
                            cy="0"
                            r="1"
                            gradientUnits="userSpaceOnUse"
                            gradientTransform="translate(22.5215 60.6667) rotate(-85.8684) scale(82.6911 44.7346)"
                          >
                            <stop stop-color="#FF9933" />
                            <stop offset="0.516164" stop-color="#FB7932" />
                            <stop offset="1" stop-color="#F33830" />
                          </radialGradient>
                        </defs>
                      </svg>