    <svg
                        width="54"
                        height="52"
                        viewBox="0 0 54 52"
                        fill="none"
                        xmlns="http://www.w3.org/2000/svg"
                      >
                        <g filter="url(#filter0_d_140_7630)">
                          <path
                            fill-rule="evenodd"
                            clip-rule="evenodd"
                            d="M24.4318 10.4054C26.1274 10.0473 27.8739 10.0473 29.5695 10.4054C35.2457 11.6045 39.6117 16.2365 40.7883 22.0533C40.1051 21.701 39.3366 21.5032 38.5242 21.5032C37.9226 21.5032 37.3238 21.5904 36.7449 21.7625L36.2973 21.8955C33.7216 22.6611 31.7754 24.8836 31.2646 27.6429C30.9728 29.2191 30.9728 30.8395 31.2646 32.4157C31.7754 35.175 33.7216 37.3975 36.2973 38.1631L36.7449 38.2961C37.3238 38.4682 37.9226 38.5554 38.5242 38.5554C41.3647 38.5554 43.6673 36.1375 43.6673 33.1549L43.6673 24.5982L43.6268 23.9781C43.1047 15.9849 37.5554 9.34602 30.0752 7.76586C28.0458 7.33716 25.9555 7.33716 23.9261 7.76586C16.4459 9.34602 10.8966 15.9849 10.3745 23.9781L10.334 24.5982L10.334 33.1549C10.334 36.1375 12.6366 38.5554 15.4771 38.5554C16.0787 38.5554 16.6775 38.4682 17.2563 38.2961L17.704 38.1631C20.2797 37.3975 22.2259 35.175 22.7367 32.4157C23.0285 30.8395 23.0285 29.2191 22.7367 27.6429C22.2259 24.8836 20.2797 22.6611 17.704 21.8955L17.2563 21.7625C16.6775 21.5904 16.0787 21.5032 15.4771 21.5032C14.6646 21.5032 13.8962 21.701 13.2131 22.0533C14.3896 16.2365 18.7556 11.6045 24.4318 10.4054Z"
                            fill="#7C8088"
                          />
                          <path
                            fill-rule="evenodd"
                            clip-rule="evenodd"
                            d="M24.4318 10.4054C26.1274 10.0473 27.8739 10.0473 29.5695 10.4054C35.2457 11.6045 39.6117 16.2365 40.7883 22.0533C40.1051 21.701 39.3366 21.5032 38.5242 21.5032C37.9226 21.5032 37.3238 21.5904 36.7449 21.7625L36.2973 21.8955C33.7216 22.6611 31.7754 24.8836 31.2646 27.6429C30.9728 29.2191 30.9728 30.8395 31.2646 32.4157C31.7754 35.175 33.7216 37.3975 36.2973 38.1631L36.7449 38.2961C37.3238 38.4682 37.9226 38.5554 38.5242 38.5554C41.3647 38.5554 43.6673 36.1375 43.6673 33.1549L43.6673 24.5982L43.6268 23.9781C43.1047 15.9849 37.5554 9.34602 30.0752 7.76586C28.0458 7.33716 25.9555 7.33716 23.9261 7.76586C16.4459 9.34602 10.8966 15.9849 10.3745 23.9781L10.334 24.5982L10.334 33.1549C10.334 36.1375 12.6366 38.5554 15.4771 38.5554C16.0787 38.5554 16.6775 38.4682 17.2563 38.2961L17.704 38.1631C20.2797 37.3975 22.2259 35.175 22.7367 32.4157C23.0285 30.8395 23.0285 29.2191 22.7367 27.6429C22.2259 24.8836 20.2797 22.6611 17.704 21.8955L17.2563 21.7625C16.6775 21.5904 16.0787 21.5032 15.4771 21.5032C14.6646 21.5032 13.8962 21.701 13.2131 22.0533C14.3896 16.2365 18.7556 11.6045 24.4318 10.4054Z"
                            fill="url(#paint0_radial_140_7630)"
                          />
                        </g>
                        <defs>
                          <filter
                            id="filter0_d_140_7630"
                            x="0.333984"
                            y="0.444336"
                            width="53.3334"
                            height="51.1113"
                            filterUnits="userSpaceOnUse"
                            color-interpolation-filters="sRGB"
                          >
                            <feFlood
                              flood-opacity="0"
                              result="BackgroundImageFix"
                            />
                            <feColorMatrix
                              in="SourceAlpha"
                              type="matrix"
                              values="0 0 0 0 0 0 0 0 0 0 0 0 0 0 0 0 0 0 127 0"
                              result="hardAlpha"
                            />
                            <feOffset dy="3" />
                            <feGaussianBlur stdDeviation="5" />
                            <feComposite in2="hardAlpha" operator="out" />
                            <feColorMatrix
                              type="matrix"
                              values="0 0 0 0 0.976471 0 0 0 0 0.384314 0 0 0 0 0.196078 0 0 0 0.42 0"
                            />
                            <feBlend
                              mode="normal"
                              in2="BackgroundImageFix"
                              result="effect1_dropShadow_140_7630"
                            />
                            <feBlend
                              mode="normal"
                              in="SourceGraphic"
                              in2="effect1_dropShadow_140_7630"
                              result="shape"
                            />
                          </filter>
                          <radialGradient
                            id="paint0_radial_140_7630"
                            cx="0"
                            cy="0"
                            r="1"
                            gradientUnits="userSpaceOnUse"
                            gradientTransform="translate(22.5215 61.8888) rotate(-86.457) scale(96.4065 44.7654)"
                          >
                            <stop stop-color="#FF9933" />
                            <stop offset="0.516164" stop-color="#FB7932" />
                            <stop offset="1" stop-color="#F33830" />
                          </radialGradient>
                        </defs>
                      </svg>