  <svg width="33" height="32" viewBox="0 0 33 32" fill="none" xmlns="http://www.w3.org/2000/svg">
                            <path d="M16.4848 26.799L24.4798 31.7098C25.9439 32.6098 27.7355 31.2794 27.3502 29.5968L25.2311 20.3622L32.3013 14.1405C33.592 13.0058 32.8985 10.8536 31.2032 10.7167L21.8983 9.91452L18.2572 1.18857C17.6022 -0.396189 15.3675 -0.396189 14.7125 1.18857L11.0714 9.89495L1.7665 10.6971C0.0711981 10.8341 -0.622337 12.9862 0.668408 14.121L7.73861 20.3426L5.61947 29.5773C5.23418 31.2598 7.02581 32.5902 8.48994 31.6903L16.4848 26.799Z" fill="white" />
                            <path d="M16.4848 26.799L24.4798 31.7098C25.9439 32.6098 27.7355 31.2794 27.3502 29.5968L25.2311 20.3622L32.3013 14.1405C33.592 13.0058 32.8985 10.8536 31.2032 10.7167L21.8983 9.91452L18.2572 1.18857C17.6022 -0.396189 15.3675 -0.396189 14.7125 1.18857L11.0714 9.89495L1.7665 10.6971C0.0711981 10.8341 -0.622337 12.9862 0.668408 14.121L7.73861 20.3426L5.61947 29.5773C5.23418 31.2598 7.02581 32.5902 8.48994 31.6903L16.4848 26.799Z" fill="url(#paint0_radial_1_188)" />
                            <defs>
                                <radialGradient id="paint0_radial_1_188" cx="0" cy="0" r="1" gradientUnits="userSpaceOnUse" gradientTransform="translate(12.0545 56) rotate(-86.5927) scale(99.1467 44.2835)">
                                    <stop stop-color="#FF9933" />
                                    <stop offset="0.516164" stop-color="#FB7932" />
                                    <stop offset="1" stop-color="#F33830" />
                                </radialGradient>
                            </defs>
                        </svg>